# xmcd
#
# Track frame offsets: 
#        182
#        14362
#        23890
#        35587
#        46055
#        58295
#        69210
#        79260
#        90675
#        97750
#        109722
#        122032
#
# Disc length: 1846 seconds
#
# Revision: 1
# Processed by: cddbd v1.4PL0 Copyright (c) Steve Scherf et al.
# Submitted via: ExactAudioCopy v0.90b4
#
DISCID=9107340c
DTITLE=Slim Whitman - 36 All-Time Greatest Hits - Disc 1
DYEAR=1993
DGENRE=Country
TTITLE0=Indian Love Call
TTITLE1=Mockin' Bird Hill
TTITLE2=Making Believe
TTITLE3=Remember Me (I'm The One Who Loves You)
TTITLE4=There Goes My Everything
TTITLE5=Keep It A Secret
TTITLE6=Una Paloma Blanca
TTITLE7=Cattle Call
TTITLE8=Don't Let The Stars Get In Your Eyes
TTITLE9=Paper Roses
TTITLE10=More Than Yesterday
TTITLE11=Let Me Call You Sweetheart
EXTD=
EXTT0=
EXTT1=
EXTT2=
EXTT3=
EXTT4=
EXTT5=
EXTT6=
EXTT7=
EXTT8=
EXTT9=
EXTT10=
EXTT11=
PLAYORDER=
